<svg width="1422" height="1024" viewBox="0 0 1422 1024" fill="none" xmlns="http://www.w3.org/2000/svg">
<path fill-rule="evenodd" clip-rule="evenodd" d="M152.643 -5.8453L77 37.8274V125.173L152.643 168.845L228 125.338V37.6619L152.643 -5.8453ZM228.643 36.8786L152.643 -7L76 37.25V125.371L0 169.25V257.75L76 301.629V389.75L152 433.629V521.75L228.643 566L305.286 521.75V433.629L380.643 390.121L456.643 434L533.286 389.75V301.629L608.643 258.121L684 301.629V389.371L608 433.25V521.75L684 565.629V653.371L608.643 696.879L532.643 653L456 697.25V785.371L380.643 828.879L305.286 785.371V697.25L228.643 653L152 697.25V785.75L228 829.629V917.75L304.643 962L380.643 918.121L456.643 962L533.286 917.75V829.629L608.643 786.121L684.643 830L761.286 785.75V697.629L837.286 653.75V565.25L761.286 521.371V433.629L836.643 390.121L912 433.629V521.75L988 565.629V653.75L1064 697.629V785.75L1140.64 830L1216.64 786.121L1292 829.629V917.371L1216 961.25V1049.37L1140 1093.25V1181.75L1216.64 1226L1292.64 1182.12L1368 1225.63V1313.75L1444.64 1358L1521.29 1313.75V1225.25L1445.29 1181.37V1093.63L1521.29 1049.75V961.25L1445.29 917.371V829.25L1369.29 785.371V697.25L1292.64 653L1216.64 696.879L1141.29 653.371V565.629L1216.64 522.121L1292.64 566L1369.29 521.75V433.25L1293.29 389.371V301.629L1369.29 257.75V169.25L1292.64 125L1216 169.25V257.371L1140 301.25V389.371L1064.64 432.879L989.286 389.371V301.25L912.643 257L836.643 300.879L761.286 257.371V169.25L684.643 125L608.643 168.879L532.643 125L456.643 168.879L381.286 125.371V37.25L304.643 -7L228.643 36.8786ZM228 301.662V389.338L152.643 432.845L77 389.173V301.827L152.643 258.155L228 301.662ZM229.286 389.338L304.643 432.845L380 389.338V301.662L304.643 258.155L229.286 301.662V389.338ZM609.286 257.338V169.662L684.643 126.155L760.286 169.827V257.173L684.643 300.845L609.286 257.338ZM608 169.662L532.643 126.155L457.286 169.662V257.338L532.643 300.845L608 257.338V169.662ZM456.643 432.845L381.286 389.338V301.662L456.643 258.155L532.286 301.827V389.173L456.643 432.845ZM304 169.662V257.338L228.643 300.845L153.286 257.338V169.662L228.643 126.155L304 169.662ZM305.286 257.338L380.643 300.845L456 257.338V169.662L380.643 126.155L305.286 169.662V257.338ZM152 169.662L76.6432 126.155L1 169.827V257.173L76.6432 300.845L152 257.338V169.662ZM229.286 125.338V37.6619L304.643 -5.8453L380.286 37.8274V125.173L304.643 168.845L229.286 125.338ZM836 389.338V301.662L760.643 258.155L685 301.827V389.173L760.643 432.845L836 389.338ZM837.286 301.662V389.338L912.643 432.845L988.286 389.173V301.827L912.643 258.155L837.286 301.662ZM1064 433.662V521.338L988.643 564.845L913 521.173V433.827L988.643 390.155L1064 433.662ZM1065.29 521.338L1140.64 564.845L1216 521.338V433.662L1140.64 390.155L1065.29 433.662V521.338ZM1217.29 521.338L1292.64 564.845L1368.29 521.173V433.827L1292.64 390.155L1217.29 433.662V521.338ZM1216 697.662V785.338L1140.64 828.845L1065 785.173V697.827L1140.64 654.155L1216 697.662ZM1217.29 785.338L1292.64 828.845L1368.29 785.173V697.827L1292.64 654.155L1217.29 697.662V785.338ZM609 433.827L684.643 390.155L760.286 433.827V521.173L684.643 564.845L609 521.173V433.827ZM381.286 917.338V829.662L456.643 786.155L532.286 829.827V917.173L456.643 960.845L381.286 917.338ZM380 829.662L304.643 786.155L229 829.827V917.173L304.643 960.845L380 917.338V829.662ZM609.286 785.338V697.662L684.643 654.155L760.286 697.827V785.173L684.643 828.845L609.286 785.338ZM608 697.662L532.643 654.155L457 697.827V785.173L532.643 828.845L608 785.338V697.662ZM760.643 522.155L685 565.827V653.173L760.643 696.845L836.286 653.173V565.827L760.643 522.155ZM1292.64 126.155L1217 169.827V257.173L1292.64 300.845L1368.29 257.173V169.827L1292.64 126.155ZM1064.64 522.155L989 565.827V653.173L1064.64 696.845L1140.29 653.173V565.827L1064.64 522.155ZM1368.64 786.155L1293 829.827V917.173L1368.64 960.845L1444.29 917.173V829.827L1368.64 786.155ZM1292 1181.34V1093.66L1216.64 1050.15L1141 1093.83V1181.17L1216.64 1224.85L1292 1181.34ZM1368.64 1224.85L1293.29 1181.34V1093.66L1368.64 1050.15L1444.29 1093.83V1181.17L1368.64 1224.85ZM1368 1049.34V961.662L1292.64 918.155L1217 961.827V1049.17L1292.64 1092.85L1368 1049.34ZM1444.64 1092.85L1369.29 1049.34V961.662L1444.64 918.155L1520.29 961.827V1049.17L1444.64 1092.85ZM1369 1225.83L1444.64 1182.15L1520.29 1225.83V1313.17L1444.64 1356.85L1369 1313.17V1225.83ZM784 1158.75V1070.63L708 1026.75V938.25L784.643 894L860.643 937.879L936.643 894L1013.29 938.25V1026.75L937.286 1070.63V1158.75L860.643 1203L784 1158.75ZM860 938.662V1026.34L784.643 1069.85L709 1026.17V938.827L784.643 895.155L860 938.662ZM861.286 1026.34V938.662L936.643 895.155L1012.29 938.827V1026.17L936.643 1069.85L861.286 1026.34ZM860.643 1027.15L785 1070.83V1158.17L860.643 1201.85L936.286 1158.17V1070.83L860.643 1027.15ZM1216.64 258.155L1141 301.827V389.173L1216.64 432.845L1292.29 389.173V301.827L1216.64 258.155ZM228.643 654.155L153 697.827V785.173L228.643 828.845L304.286 785.173V697.827L228.643 654.155ZM228.643 390.155L153 433.827V521.173L228.643 564.845L304.286 521.173V433.827L228.643 390.155Z" fill="#FFF2B7" fill-opacity="0.2"/>
</svg>
