<svg width="24" height="24" viewBox="0 0 24 24" fill="none" xmlns="http://www.w3.org/2000/svg">
<path d="M12.3001 10.6474C12.4624 10.8101 12.4622 11.0734 12.2997 11.2358C12.1372 11.3981 11.8739 11.3981 11.7114 11.2358C11.5489 11.0734 11.5486 10.8101 11.7109 10.6474C11.789 10.5692 11.895 10.5252 12.0055 10.5252C12.1161 10.5252 12.2221 10.5692 12.3001 10.6474" stroke="white" stroke-width="1.5" stroke-linecap="round" stroke-linejoin="round"/>
<path d="M15.9196 10.8425V10.8425C15.9199 11.9073 15.447 12.9171 14.6291 13.5987L13.3445 14.6691C12.8324 15.0962 12.4493 15.6573 12.2381 16.2898L12 17.0021L11.7629 16.2898C11.5515 15.6574 11.1684 15.0963 10.6564 14.6691L9.37088 13.6007C8.55273 12.9196 8.07983 11.91 8.08033 10.8455V10.8455V10.8655C8.0778 9.82994 8.49163 8.8368 9.22878 8.10943C9.96593 7.38207 10.9645 6.98154 12 6.99792C13.0349 6.98155 14.033 7.38167 14.7701 8.10838C15.5072 8.83509 15.9214 9.82746 15.9196 10.8625" stroke="white" stroke-width="1.5" stroke-linecap="round" stroke-linejoin="round"/>
<path fill-rule="evenodd" clip-rule="evenodd" d="M17.002 21.0037H6.99788C4.78782 21.0037 2.99622 19.2121 2.99622 17.002V6.99788C2.99622 4.78782 4.78782 2.99622 6.99788 2.99622H17.002C19.2121 2.99622 21.0037 4.78782 21.0037 6.99788V17.002C21.0037 19.2121 19.2121 21.0037 17.002 21.0037Z" stroke="white" stroke-width="1.5" stroke-linecap="round" stroke-linejoin="round"/>
</svg>
